# xmcd CD Database Entry
#
# Track frame offsets:
# 150
# 32187
# 53470
# 81237
# 106082
# 124517
# 142455
#
# Disc length: 2169 seconds
#
# Revision: 1
# Processed by: cddbd v1.4PL0 Copyright (c) Steve Scherf et al.
# Submitted via: tcd 2.0b
#
DISCID=59087707
DTITLE=Chet Baker - She Was Too Good To Me
DYEAR=1900
DGENRE=
TTITLE0=Autumn Leaves
TTITLE1=She Was Too Good to Me
TTITLE2=Funk in Deep Freeze
TTITLE3=Tangerine
TTITLE4=With a Song in My Heart
TTITLE5=What'll I Do?
TTITLE6=It's You or No One
EXTD=CHET BAKER Trumpet and Vocal\nPAUL DESMOND Alto Saxophone\nBO
EXTD=B JAMES Electric Piano\nRON CARTER Bass\nRecorded at Van Geld
EXTD=er Studios, July 17, October 31, and November 1, 1974 
EXTT0=
EXTT1=
EXTT2=
EXTT3=
EXTT4=
EXTT5=
EXTT6=
PLAYORDER=
